<?xml version="1.0" encoding="UTF-8"?>
<svg xmlns="http://www.w3.org/2000/svg" width="1240" height="627" viewBox="0 0 1240 627" style="background:#fff">
   <title>Background top - Desktop 1280px</title>
   <defs>
      <linearGradient x1="68.424%" y1="100%" x2="32.08%" y2="0%" id="a">
         <stop stop-color="#4E4376" offset="0%" />
         <stop stop-color="#29709F" offset="100%" />
      </linearGradient>
      <linearGradient x1="50%" y1="0%" x2="50%" y2="100%" id="b">
         <stop stop-color="#FFF" stop-opacity=".5" offset="0%" />
         <stop stop-color="#F6F9FC" stop-opacity=".5" offset="100%" />
      </linearGradient>
   </defs>
   <g fill="none" fill-rule="evenodd">
      <path d="M0 .063C.667 71.888 1 137.15 1 195.845v270.4c0 10.34-1.19 24.591 0 24.393 27.113-4.524 147.319 9.322 229.775 25.801 104.41 20.867 219.285 61.954 329.792 89.926 151.863 38.44 326.889 16.193 426.51-10.27 99.62-26.462 290.462-132.792 255.077-115.17-1.006.502-1.724-159.786-2.154-480.863H0z" fill="url(#a)" />
      <path d="M-7.56 252c-.572 238.962-.859 387.371-.859 445.23 0 88.858-.01 150.92 0 193.806.011 42.886 0 67.606 0 77.29 0 9.683-1.308 25.506 0 25.306 29.778-4.552 162.318 9.514 252.88 26.099 114.675 21 240.841 62.35 362.212 90.502 166.792 38.686 359.023 16.296 468.436-10.336 109.414-26.632 319.013-133.464 280.15-115.728-.999.456-.348-186.189-.573-565.69-.016-26.968.655-82.46 2.013-166.479H-7.559z" fill="url(#b)" opacity=".1" transform="rotate(-180 675.5 691.5)" />
      <path d="M-67.474 479c-.607 253.098-.91 410.288-.91 471.568 0 94.116-.012 159.849 0 205.272.011 45.423 0 71.606 0 81.862 0 10.257-1.386 27.016 0 26.804 31.54-4.822 171.922 10.076 267.842 27.643 121.46 22.243 255.09 66.039 383.643 95.855 176.66 40.975 380.265 17.26 496.152-10.947s337.888-141.36 296.725-122.574c-1.058.483-.368-197.203-.606-599.155-.017-28.563.694-87.34 2.132-176.328H-67.474z" fill="url(#b)" opacity=".1" transform="rotate(-180 656 944.5)" />
   </g>
</svg>