<svg width="1240" height="483" viewBox="0 0 1240 483" xmlns="http://www.w3.org/2000/svg" xmlns:xlink="http://www.w3.org/1999/xlink" style="background:#fff"><title>Background bottom - Desktop 1280px</title><defs><path id="a" d="M0 0h1240v485H0z"/><linearGradient x1="68.424%" y1="100%" x2="32.08%" y2="0%" id="c"><stop stop-color="#4E4376" offset="0%"/><stop stop-color="#29709F" offset="100%"/></linearGradient><linearGradient x1="50%" y1="0%" x2="50%" y2="100%" id="d"><stop stop-color="#FFF" stop-opacity=".5" offset="0%"/><stop stop-color="#F6F9FC" stop-opacity=".5" offset="100%"/></linearGradient></defs><g transform="translate(0 -2)" fill="none" fill-rule="evenodd"><mask id="b" fill="#fff"><use xlink:href="#a"/></mask><g mask="url(#b)"><path d="M102.045 0c-.52 217.213-.78 352.116-.78 404.708 0 80.771-.01 137.184 0 176.168.01 38.983 0 61.453 0 70.255 0 8.802-1.19 23.185 0 23.003 27.058-4.138 147.497 8.648 229.79 23.724 104.204 19.09 218.85 56.676 329.139 82.265 151.562 35.165 326.241 14.813 425.664-9.395s292.193-125.166 256.878-109.044c-.907.414.204-166.074 0-511.036-.014-24.513-.014-74.73 0-150.648H102.046z" fill="url(#c)" transform="rotate(-180 671.368 400.5)"/><path d="M1.526 161C.92 414.098.616 571.288.616 632.568c0 94.116-.012 159.849 0 205.272.011 45.423 0 71.606 0 81.862 0 10.257-1.386 27.016 0 26.804 31.54-4.822 171.922 10.076 267.842 27.643 121.46 22.243 255.09 66.039 383.643 95.855 176.66 40.975 380.265 17.26 496.152-10.947s337.888-141.36 296.725-122.574c-1.058.483-.368-197.203-.606-599.155-.017-28.563.694-87.34 2.132-176.328H1.526z" fill="url(#d)" opacity=".1" transform="matrix(1 0 0 -1 -105 1255)"/><path d="M1.44 359C.869 597.962.582 746.371.582 804.23c0 88.858-.01 150.92 0 193.806.011 42.886 0 67.606 0 77.29 0 9.683-1.308 25.506 0 25.306 29.778-4.552 162.318 9.514 252.88 26.099 114.675 21 240.841 62.35 362.212 90.502 166.792 38.686 359.023 16.296 468.436-10.336 109.414-26.632 319.013-133.464 280.15-115.728-.999.456-.348-186.189-.573-565.69-.016-26.968.655-82.46 2.013-166.479H1.441z" fill="url(#d)" opacity=".1" transform="rotate(-180 632 799.5)"/></g></g></svg>